<?xml version="1.0" standalone="no"?><svg xmlns="http://www.w3.org/2000/svg" viewBox="0 0 1440 320"><path fill="#0099ff" fill-opacity="1" d="M0,192L26.7,208C53.3,224,107,256,160,234.7C213.3,213,267,139,320,90.7C373.3,43,427,21,480,32C533.3,43,587,85,640,117.3C693.3,149,747,171,800,181.3C853.3,192,907,192,960,176C1013.3,160,1067,128,1120,122.7C1173.3,117,1227,139,1280,138.7C1333.3,139,1387,117,1413,106.7L1440,96L1440,0L1413.3,0C1386.7,0,1333,0,1280,0C1226.7,0,1173,0,1120,0C1066.7,0,1013,0,960,0C906.7,0,853,0,800,0C746.7,0,693,0,640,0C586.7,0,533,0,480,0C426.7,0,373,0,320,0C266.7,0,213,0,160,0C106.7,0,53,0,27,0L0,0Z"></path></svg>