<?xml version="1.0" standalone="no"?><svg xmlns="http://www.w3.org/2000/svg" viewBox="0 0 1440 320"><path fill="#0099ff" fill-opacity="1" d="M0,128L34.3,160C68.6,192,137,256,206,266.7C274.3,277,343,235,411,197.3C480,160,549,128,617,128C685.7,128,754,160,823,149.3C891.4,139,960,85,1029,74.7C1097.1,64,1166,96,1234,112C1302.9,128,1371,128,1406,128L1440,128L1440,0L1405.7,0C1371.4,0,1303,0,1234,0C1165.7,0,1097,0,1029,0C960,0,891,0,823,0C754.3,0,686,0,617,0C548.6,0,480,0,411,0C342.9,0,274,0,206,0C137.1,0,69,0,34,0L0,0Z"></path></svg>